<svg width="25" height="25" viewBox="0 0 25 25" fill="none" xmlns="http://www.w3.org/2000/svg">
<path d="M22.21 20.6293L18.5 16.9493C19.9401 15.1537 20.6375 12.8746 20.4488 10.5806C20.2601 8.28656 19.1997 6.15204 17.4855 4.6159C15.7714 3.07977 13.5338 2.25877 11.2329 2.32173C8.93203 2.38469 6.74272 3.32682 5.11514 4.9544C3.48756 6.58198 2.54543 8.7713 2.48247 11.0722C2.41951 13.3731 3.2405 15.6106 4.77664 17.3248C6.31278 19.0389 8.4473 20.0994 10.7413 20.2881C13.0353 20.4768 15.3144 19.7794 17.11 18.3393L20.79 22.0193C20.883 22.113 20.9936 22.1874 21.1154 22.2382C21.2373 22.2889 21.368 22.3151 21.5 22.3151C21.632 22.3151 21.7627 22.2889 21.8846 22.2382C22.0064 22.1874 22.117 22.113 22.21 22.0193C22.3902 21.8328 22.491 21.5836 22.491 21.3243C22.491 21.0649 22.3902 20.8157 22.21 20.6293ZM11.5 18.3393C10.1155 18.3393 8.76215 17.9287 7.611 17.1595C6.45986 16.3904 5.56265 15.2971 5.03284 14.018C4.50303 12.739 4.3644 11.3315 4.6345 9.97363C4.9046 8.61576 5.57128 7.36848 6.55025 6.38951C7.52922 5.41054 8.7765 4.74386 10.1344 4.47376C11.4922 4.20367 12.8997 4.34229 14.1788 4.8721C15.4579 5.40192 16.5511 6.29912 17.3203 7.45027C18.0895 8.60141 18.5 9.95479 18.5 11.3393C18.5 13.1958 17.7625 14.9763 16.4497 16.289C15.137 17.6018 13.3565 18.3393 11.5 18.3393Z" fill="white"/>
</svg>
