<svg width="15" height="16" viewBox="0 0 15 16" fill="none" xmlns="http://www.w3.org/2000/svg">
<path fill-rule="evenodd" clip-rule="evenodd" d="M1.24997 7.08984C1.24997 3.65234 4.06247 0.839844 7.49997 0.839844C10.9375 0.839844 13.75 3.65234 13.75 7.08984C13.75 11.7148 8.06247 15.5898 7.87497 15.7148C7.74997 15.7773 7.62497 15.8398 7.49997 15.8398C7.37497 15.8398 7.24997 15.7773 7.12497 15.7148C6.93747 15.5898 1.24997 11.7148 1.24997 7.08984ZM2.49997 7.08984C2.49997 10.4648 6.31247 13.5898 7.49997 14.4648C8.68747 13.5898 12.5 10.4648 12.5 7.08984C12.5 4.33984 10.25 2.08984 7.49997 2.08984C4.74997 2.08984 2.49997 4.33984 2.49997 7.08984ZM7.49997 4.58984C6.12497 4.58984 4.99997 5.71484 4.99997 7.08984C4.99997 8.46484 6.12497 9.58984 7.49997 9.58984C8.87497 9.58984 9.99997 8.46484 9.99997 7.08984C9.99997 5.71484 8.87497 4.58984 7.49997 4.58984ZM6.24997 7.08984C6.24997 7.77734 6.81247 8.33984 7.49997 8.33984C8.18747 8.33984 8.74997 7.77734 8.74997 7.08984C8.74997 6.40234 8.18747 5.83984 7.49997 5.83984C6.81247 5.83984 6.24997 6.40234 6.24997 7.08984Z" fill="#212529"/>
<mask id="mask0_16_3706" style="mask-type:luminance" maskUnits="userSpaceOnUse" x="1" y="0" width="13" height="16">
<path fill-rule="evenodd" clip-rule="evenodd" d="M1.24997 7.08984C1.24997 3.65234 4.06247 0.839844 7.49997 0.839844C10.9375 0.839844 13.75 3.65234 13.75 7.08984C13.75 11.7148 8.06247 15.5898 7.87497 15.7148C7.74997 15.7773 7.62497 15.8398 7.49997 15.8398C7.37497 15.8398 7.24997 15.7773 7.12497 15.7148C6.93747 15.5898 1.24997 11.7148 1.24997 7.08984ZM2.49997 7.08984C2.49997 10.4648 6.31247 13.5898 7.49997 14.4648C8.68747 13.5898 12.5 10.4648 12.5 7.08984C12.5 4.33984 10.25 2.08984 7.49997 2.08984C4.74997 2.08984 2.49997 4.33984 2.49997 7.08984ZM7.49997 4.58984C6.12497 4.58984 4.99997 5.71484 4.99997 7.08984C4.99997 8.46484 6.12497 9.58984 7.49997 9.58984C8.87497 9.58984 9.99997 8.46484 9.99997 7.08984C9.99997 5.71484 8.87497 4.58984 7.49997 4.58984ZM6.24997 7.08984C6.24997 7.77734 6.81247 8.33984 7.49997 8.33984C8.18747 8.33984 8.74997 7.77734 8.74997 7.08984C8.74997 6.40234 8.18747 5.83984 7.49997 5.83984C6.81247 5.83984 6.24997 6.40234 6.24997 7.08984Z" fill="white"/>
</mask>
<g mask="url(#mask0_16_3706)">
<path fill-rule="evenodd" clip-rule="evenodd" d="M-3.05176e-05 0.839844H15V15.8398H-3.05176e-05V0.839844Z" fill="#212529"/>
</g>
</svg>
