<svg width="25" height="25" viewBox="0 0 25 25" fill="none" xmlns="http://www.w3.org/2000/svg">
<path fill-rule="evenodd" clip-rule="evenodd" d="M7.5 7.03735C7.5 4.23735 9.7 2.03735 12.5 2.03735C15.3 2.03735 17.5 4.23735 17.5 7.03735C17.5 9.83735 15.3 12.0374 12.5 12.0374C9.7 12.0374 7.5 9.83735 7.5 7.03735ZM21.5 19.0374V21.0374C21.5 21.6374 21.1 22.0374 20.5 22.0374C19.9 22.0374 19.5 21.6374 19.5 21.0374V19.0374C19.5 17.3374 18.2 16.0374 16.5 16.0374H8.5C6.8 16.0374 5.5 17.3374 5.5 19.0374V21.0374C5.5 21.6374 5.1 22.0374 4.5 22.0374C3.9 22.0374 3.5 21.6374 3.5 21.0374V19.0374C3.5 16.2374 5.7 14.0374 8.5 14.0374H16.5C19.3 14.0374 21.5 16.2374 21.5 19.0374ZM12.5 10.0374C10.8 10.0374 9.5 8.73735 9.5 7.03735C9.5 5.33735 10.8 4.03735 12.5 4.03735C14.2 4.03735 15.5 5.33735 15.5 7.03735C15.5 8.73735 14.2 10.0374 12.5 10.0374Z" fill="#2C2D3A"/>
<mask id="mask0_4_1205" style="mask-type:luminance" maskUnits="userSpaceOnUse" x="3" y="2" width="19" height="21">
<path fill-rule="evenodd" clip-rule="evenodd" d="M7.5 7.03735C7.5 4.23735 9.7 2.03735 12.5 2.03735C15.3 2.03735 17.5 4.23735 17.5 7.03735C17.5 9.83735 15.3 12.0374 12.5 12.0374C9.7 12.0374 7.5 9.83735 7.5 7.03735ZM21.5 19.0374V21.0374C21.5 21.6374 21.1 22.0374 20.5 22.0374C19.9 22.0374 19.5 21.6374 19.5 21.0374V19.0374C19.5 17.3374 18.2 16.0374 16.5 16.0374H8.5C6.8 16.0374 5.5 17.3374 5.5 19.0374V21.0374C5.5 21.6374 5.1 22.0374 4.5 22.0374C3.9 22.0374 3.5 21.6374 3.5 21.0374V19.0374C3.5 16.2374 5.7 14.0374 8.5 14.0374H16.5C19.3 14.0374 21.5 16.2374 21.5 19.0374ZM12.5 10.0374C10.8 10.0374 9.5 8.73735 9.5 7.03735C9.5 5.33735 10.8 4.03735 12.5 4.03735C14.2 4.03735 15.5 5.33735 15.5 7.03735C15.5 8.73735 14.2 10.0374 12.5 10.0374Z" fill="white"/>
</mask>
<g mask="url(#mask0_4_1205)">
<path fill-rule="evenodd" clip-rule="evenodd" d="M0.5 0.0373535H24.5V24.0374H0.5V0.0373535Z" fill="#2C2D3A"/>
</g>
</svg>
